<?xml version="1.0" encoding="utf-8"?>
<!DOCTYPE svg PUBLIC "-//W3C//DTD SVG 1.1//EN" "http://www.w3.org/Graphics/SVG/1.1/DTD/svg11.dtd">
<svg version="1.1" id="Layer_1" xmlns="http://www.w3.org/2000/svg" xmlns:xlink="http://www.w3.org/1999/xlink" x="0px" y="0px"
	 width="404px" height="146.334px" viewBox="0 0 404 146.334" enable-background="new 0 0 404 146.334" xml:space="preserve">
<polygon fill="#231F20" points="239.96,124.16 245.66,115.96 270.33,143.391 303.811,143.391 260.24,94.931 299.14,38.83 
	268.84,38.83 239.96,80.46 239.96,2.1 215.08,2.1 215.08,143.391 239.96,143.391 "/>
<polygon fill="#231F20" points="145.01,124.16 150.7,115.96 175.38,143.391 187.58,143.391 208.87,143.391 165.28,94.931 
	204.189,38.83 173.88,38.83 145.01,80.46 145.01,2.1 120.12,2.1 120.12,143.391 145.01,143.391 "/>
<path fill-rule="evenodd" clip-rule="evenodd" fill="#231F20" d="M347.51,121.101c-16.54,0-30-13.461-30-29.99
	c0-16.541,13.46-30,30-30s29.99,13.459,29.99,30C377.5,107.64,364.05,121.101,347.51,121.101z M347.51,36.21
	c-30.329,0-54.899,24.58-54.899,54.9c0,30.31,24.57,54.89,54.899,54.89c30.32,0,54.891-24.58,54.891-54.89
	C402.4,60.79,377.83,36.21,347.51,36.21z"/>
<path fill-rule="evenodd" clip-rule="evenodd" fill="#231F20" d="M56.35,121.101c-16.54,0-30-13.461-30-29.99
	c0-16.541,13.46-30,30-30s30,13.459,30,30C86.35,107.64,72.89,121.101,56.35,121.101z M111.24,91.11c0-30.32-24.58-54.9-54.89-54.9
	c-30.32,0-54.9,24.58-54.9,54.9c0,30.31,24.58,54.89,54.9,54.89C86.66,146,111.24,121.42,111.24,91.11z"/>
<path fill="#231F20" d="M68.79,13.24c0-6.88-5.57-12.45-12.44-12.45c-6.88,0-12.45,5.57-12.45,12.45c0,6.87,5.57,12.45,12.45,12.45
	C63.22,25.69,68.79,20.11,68.79,13.24z"/>
<path fill="#231F20" d="M100.15,13.24c0-6.88-5.58-12.45-12.45-12.45c-6.88,0-12.45,5.57-12.45,12.45c0,6.87,5.57,12.45,12.45,12.45
	C94.57,25.69,100.15,20.11,100.15,13.24z"/>
<path fill="#231F20" d="M37.45,13.24c0-6.88-5.58-12.45-12.45-12.45c-6.88,0-12.45,5.57-12.45,12.45c0,6.87,5.57,12.45,12.45,12.45
	C31.87,25.69,37.45,20.11,37.45,13.24z"/>
</svg>
